<?xml version="1.0" encoding="UTF-8" standalone="no"?><!DOCTYPE svg PUBLIC "-//W3C//DTD SVG 1.1//EN" "http://www.w3.org/Graphics/SVG/1.1/DTD/svg11.dtd"><svg width="100%" height="100%" viewBox="0 0 1250 1250" version="1.1" xmlns="http://www.w3.org/2000/svg" xmlns:xlink="http://www.w3.org/1999/xlink" xml:space="preserve" xmlns:serif="http://www.serif.com/" style="fill-rule:evenodd;clip-rule:evenodd;stroke-linejoin:round;stroke-miterlimit:2;"><g id="Layer1"></g><rect id="Artboard1" x="0" y="0" width="1250" height="1250" style="fill:none;"/><g id="Artboard11" serif:id="Artboard1"><path d="M141.509,804.942c34.835,142.123 125.606,257.189 485.993,258.391c295.479,0.984 462.576,-95.512 494.588,-270.403c-331.466,-60.345 -658.314,-56.54 -980.581,12.012Z" style="fill:#ffbc42;"/><ellipse cx="627.893" cy="756.142" rx="548.064" ry="174.068" style="fill:#df9d35;"/><path d="M638.393,468.777l-404.514,45.027l-64.512,43.349c0,0 -37.516,74.282 -46.271,107.748c-8.756,33.466 62.333,73.734 89.204,95.653c26.871,21.919 69.12,-58.705 95.329,-58.705c26.21,0 46.772,-19.348 78.364,-3.305c31.591,16.042 65.429,27.114 105.841,37.868c40.412,10.754 103.433,-39.039 137.523,-51.781c2.751,-1.028 5.775,-1.617 9.036,-1.833l0,-214.021Z" style="fill:#5ea014;"/><path d="M630.886,468.777l404.514,45.027l64.513,43.349c-0,0 37.515,74.282 46.271,107.748c8.756,33.466 -62.333,73.734 -89.205,95.653c-26.871,21.919 -69.119,-58.705 -95.329,-58.705c-26.209,0 -46.772,-19.348 -78.363,-3.305c-31.591,16.042 -65.43,27.114 -105.841,37.868c-40.412,10.754 -103.433,-39.039 -137.523,-51.781c-2.752,-1.028 -5.776,-1.617 -9.037,-1.833l0,-214.021Z" style="fill:#5ea014;"/><path d="M168.114,558.502c33.441,-177.252 120.578,-320.761 466.538,-322.259c283.651,-1.229 444.059,119.119 474.789,337.239c-318.197,75.262 -631.961,70.517 -941.327,-14.98Z" style="fill:#ffbc42;"/><path d="M404.795,403.423c6.453,17.794 8.321,34.054 4.17,36.287c-4.151,2.233 -12.759,-10.4 -19.211,-28.194c-6.452,-17.794 -8.32,-34.054 -4.17,-36.287c4.151,-2.233 12.759,10.4 19.211,28.194Z" style="fill:#fff;"/><path d="M507.079,394.008c12.87,11.517 21.138,24.483 18.451,28.938c-2.686,4.454 -15.316,-1.279 -28.186,-12.795c-12.869,-11.517 -21.137,-24.484 -18.45,-28.938c2.686,-4.455 15.316,1.278 28.185,12.795Z" style="fill:#fff;"/><path d="M364.158,462.113c12.87,11.517 21.137,24.484 18.451,28.938c-2.687,4.455 -15.316,-1.279 -28.186,-12.795c-12.87,-11.517 -21.137,-24.483 -18.451,-28.938c2.687,-4.454 15.316,1.279 28.186,12.795Z" style="fill:#fff;"/><path d="M447.449,505.746c15.82,2.652 28.161,9.251 27.542,14.727c-0.618,5.476 -13.965,7.768 -29.784,5.116c-15.82,-2.653 -28.162,-9.252 -27.543,-14.728c0.618,-5.476 13.965,-7.768 29.785,-5.115Z" style="fill:#fff;"/><path d="M569.77,445.989c15.82,2.652 28.162,9.252 27.543,14.727c-0.619,5.476 -13.965,7.769 -29.785,5.116c-15.82,-2.652 -28.161,-9.251 -27.543,-14.727c0.619,-5.476 13.965,-7.768 29.785,-5.116Z" style="fill:#fff;"/><path d="M572.693,335.98c15.82,2.653 28.161,9.252 27.542,14.728c-0.618,5.476 -13.964,7.768 -29.784,5.116c-15.82,-2.653 -28.162,-9.252 -27.543,-14.728c0.619,-5.476 13.965,-7.768 29.785,-5.116Z" style="fill:#fff;"/><path d="M754.303,458.868c6.452,-17.794 8.321,-34.054 4.17,-36.287c-4.151,-2.233 -12.759,10.4 -19.211,28.194c-6.452,17.794 -8.321,34.054 -4.17,36.287c4.151,2.233 12.759,-10.4 19.211,-28.194Z" style="fill:#fff;"/><path d="M592.6,532.146c6.452,-17.794 8.32,-34.054 4.17,-36.287c-4.151,-2.233 -12.759,10.4 -19.211,28.194c-6.452,17.794 -8.321,34.054 -4.17,36.287c4.151,2.233 12.759,-10.4 19.211,-28.194Z" style="fill:#fff;"/><path d="M856.587,468.283c12.87,-11.517 21.138,-24.483 18.451,-28.938c-2.686,-4.455 -15.316,1.279 -28.186,12.795c-12.869,11.517 -21.137,24.483 -18.451,28.938c2.687,4.455 15.317,-1.279 28.186,-12.795Z" style="fill:#fff;"/><clipPath id="_clip1"><path d="M856.587,468.283c12.87,-11.517 21.138,-24.483 18.451,-28.938c-2.686,-4.455 -15.316,1.279 -28.186,12.795c-12.869,11.517 -21.137,24.483 -18.451,28.938c2.687,4.455 15.317,-1.279 28.186,-12.795Z"/></clipPath><g clip-path="url(#_clip1)"><path d="M681.488,512.401c12.869,-11.517 21.137,-24.483 18.45,-28.938c-2.686,-4.454 -15.316,1.279 -28.185,12.795c-12.87,11.517 -21.138,24.484 -18.451,28.938c2.686,4.455 15.316,-1.278 28.186,-12.795Z" style="fill:#fff;"/></g><path d="M637.741,441.817c10.5,14.656 21.8,23.604 25.219,19.969c3.419,-3.634 -2.33,-18.484 -12.83,-33.14c-10.5,-14.656 -21.801,-23.604 -25.219,-19.97c-3.419,3.635 2.33,18.484 12.83,33.141Z" style="fill:#fff;"/><path d="M713.666,400.177c12.87,-11.516 21.137,-24.483 18.451,-28.937c-2.687,-4.455 -15.316,1.278 -28.186,12.795c-12.87,11.516 -21.137,24.483 -18.451,28.938c2.686,4.454 15.316,-1.279 28.186,-12.796Z" style="fill:#fff;"/><path d="M670.802,334.045c12.87,-11.516 21.137,-24.483 18.451,-28.938c-2.687,-4.454 -15.317,1.279 -28.186,12.796c-12.87,11.516 -21.137,24.483 -18.451,28.937c2.686,4.455 15.316,-1.278 28.186,-12.795Z" style="fill:#fff;"/><path d="M796.956,356.545c15.82,-2.652 28.162,-9.251 27.543,-14.727c-0.619,-5.476 -13.965,-7.768 -29.785,-5.116c-15.82,2.653 -28.161,9.252 -27.542,14.728c0.618,5.475 13.964,7.768 29.784,5.115Z" style="fill:#fff;"/><path d="M919.278,416.302c15.82,-2.653 28.162,-9.252 27.543,-14.728c-0.619,-5.475 -13.965,-7.768 -29.785,-5.115c-15.82,2.652 -28.161,9.251 -27.543,14.727c0.619,5.476 13.965,7.768 29.785,5.116Z" style="fill:#fff;"/></g></svg>