<?xml version="1.0" encoding="UTF-8" standalone="no"?><!DOCTYPE svg PUBLIC "-//W3C//DTD SVG 1.1//EN" "http://www.w3.org/Graphics/SVG/1.1/DTD/svg11.dtd"><svg width="100%" height="100%" viewBox="0 0 1250 1250" version="1.1" xmlns="http://www.w3.org/2000/svg" xmlns:xlink="http://www.w3.org/1999/xlink" xml:space="preserve" xmlns:serif="http://www.serif.com/" style="fill-rule:evenodd;clip-rule:evenodd;stroke-linejoin:round;stroke-miterlimit:2;"><g id="Layer1"></g><rect id="Artboard1" x="0" y="0" width="1250" height="1250" style="fill:none;"/><g id="Artboard11" serif:id="Artboard1"><path d="M141.509,804.942c34.835,142.123 125.606,257.189 485.993,258.391c295.479,0.984 462.576,-95.512 494.588,-270.403c-331.466,-60.345 -658.314,-56.54 -980.581,12.012Z" style="fill:#ffbc42;"/><ellipse cx="627.893" cy="756.142" rx="548.064" ry="174.068" style="fill:#92673e;"/><clipPath id="_clip1"><ellipse cx="627.893" cy="756.142" rx="548.064" ry="174.068"/></clipPath><g clip-path="url(#_clip1)"><path d="M1051.25,191.283l-897.378,124.214l73.421,530.425l897.378,-124.214l-73.421,-530.425Z" style="fill:#ffb800;"/><path d="M282.774,101.966l875.189,234.01l-144.229,539.411l-875.189,-234.01l144.229,-539.411Z" style="fill:#ffb800;"/></g><path d="M162.946,571.193c312.732,92.055 629.585,97.357 950.605,16.663c16.08,41.819 27.267,88.1 33.51,138.633c-344.373,92.893 -683.946,87.037 -1018.76,-18.491c7.955,-48.087 18.717,-94.162 34.645,-136.805Z" style="fill:#c45024;"/><path d="M198.272,576.413c289.955,71.034 583.731,75.125 881.37,12.857c14.909,32.27 25.281,67.982 31.069,106.976c-319.29,71.681 -634.132,67.161 -944.561,-14.268c7.376,-37.107 17.355,-72.661 32.122,-105.565Z" style="fill:#ff7642;"/><path d="M198.272,576.413c289.955,71.034 583.731,75.125 881.37,12.857c14.909,32.27 25.281,67.982 31.069,106.976c-319.29,71.681 -634.132,67.161 -944.561,-14.268c7.376,-37.107 17.355,-72.661 32.122,-105.565Z" style="fill:#ff7642;"/><path d="M162.398,572.505c307.782,30.401 619.621,32.153 935.561,5.502c15.825,13.812 26.835,29.096 32.979,45.785c-338.922,30.679 -673.122,28.745 -1002.64,-6.106c7.829,-15.882 18.421,-31.099 34.097,-45.181Z" style="fill:#c45024;"/><path d="M638.393,402.311l-404.514,45.027l-64.512,43.35c0,-0 -37.516,74.282 -46.271,107.748c-8.756,33.466 62.333,73.734 89.204,95.653c26.871,21.918 69.12,-58.705 95.329,-58.705c26.21,-0 46.772,-19.348 78.364,-3.306c31.591,16.043 65.429,27.115 105.841,37.869c40.412,10.753 103.433,-39.039 137.523,-51.781c2.751,-1.028 5.775,-1.617 9.036,-1.833l0,-214.022Z" style="fill:#5ea014;"/><path d="M630.886,402.311l404.514,45.027l64.513,43.35c-0,-0 37.515,74.282 46.271,107.748c8.756,33.466 -62.333,73.734 -89.205,95.653c-26.871,21.918 -69.119,-58.705 -95.329,-58.705c-26.209,-0 -46.772,-19.348 -78.363,-3.306c-31.591,16.043 -65.43,27.115 -105.841,37.869c-40.412,10.753 -103.433,-39.039 -137.523,-51.781c-2.752,-1.028 -5.776,-1.617 -9.037,-1.833l0,-214.022Z" style="fill:#5ea014;"/><path d="M168.114,492.036c33.441,-177.252 120.578,-320.761 466.538,-322.259c283.651,-1.228 444.059,119.12 474.789,337.24c-318.197,75.262 -631.961,70.517 -941.327,-14.981Z" style="fill:#ffbc42;"/><path d="M404.795,336.958c6.453,17.794 8.321,34.053 4.17,36.287c-4.151,2.233 -12.759,-10.4 -19.211,-28.194c-6.452,-17.794 -8.32,-34.054 -4.17,-36.287c4.151,-2.234 12.759,10.4 19.211,28.194Z" style="fill:#fff;"/><path d="M507.079,327.543c12.87,11.516 21.138,24.483 18.451,28.937c-2.686,4.455 -15.316,-1.278 -28.186,-12.795c-12.869,-11.516 -21.137,-24.483 -18.45,-28.937c2.686,-4.455 15.316,1.278 28.185,12.795Z" style="fill:#fff;"/><path d="M364.158,395.648c12.87,11.517 21.137,24.483 18.451,28.938c-2.687,4.455 -15.316,-1.279 -28.186,-12.795c-12.87,-11.517 -21.137,-24.483 -18.451,-28.938c2.687,-4.455 15.316,1.279 28.186,12.795Z" style="fill:#fff;"/><path d="M447.449,439.28c15.82,2.653 28.161,9.252 27.542,14.728c-0.618,5.475 -13.965,7.768 -29.784,5.115c-15.82,-2.652 -28.162,-9.251 -27.543,-14.727c0.618,-5.476 13.965,-7.768 29.785,-5.116Z" style="fill:#fff;"/><path d="M569.77,379.524c15.82,2.652 28.162,9.251 27.543,14.727c-0.619,5.476 -13.965,7.768 -29.785,5.116c-15.82,-2.653 -28.161,-9.252 -27.543,-14.728c0.619,-5.475 13.965,-7.768 29.785,-5.115Z" style="fill:#fff;"/><path d="M572.693,269.515c15.82,2.652 28.161,9.252 27.542,14.727c-0.618,5.476 -13.964,7.769 -29.784,5.116c-15.82,-2.652 -28.162,-9.251 -27.543,-14.727c0.619,-5.476 13.965,-7.768 29.785,-5.116Z" style="fill:#fff;"/><path d="M754.303,392.403c6.452,-17.794 8.321,-34.054 4.17,-36.287c-4.151,-2.234 -12.759,10.4 -19.211,28.194c-6.452,17.794 -8.321,34.053 -4.17,36.287c4.151,2.233 12.759,-10.4 19.211,-28.194Z" style="fill:#fff;"/><path d="M592.6,465.681c6.452,-17.794 8.32,-34.054 4.17,-36.287c-4.151,-2.234 -12.759,10.4 -19.211,28.194c-6.452,17.794 -8.321,34.053 -4.17,36.287c4.151,2.233 12.759,-10.4 19.211,-28.194Z" style="fill:#fff;"/><path d="M856.587,401.818c12.87,-11.517 21.138,-24.484 18.451,-28.938c-2.686,-4.455 -15.316,1.278 -28.186,12.795c-12.869,11.516 -21.137,24.483 -18.451,28.938c2.687,4.454 15.317,-1.279 28.186,-12.795Z" style="fill:#fff;"/><clipPath id="_clip2"><path d="M856.587,401.818c12.87,-11.517 21.138,-24.484 18.451,-28.938c-2.686,-4.455 -15.316,1.278 -28.186,12.795c-12.869,11.516 -21.137,24.483 -18.451,28.938c2.687,4.454 15.317,-1.279 28.186,-12.795Z"/></clipPath><g clip-path="url(#_clip2)"><path d="M681.488,445.936c12.869,-11.517 21.137,-24.483 18.45,-28.938c-2.686,-4.455 -15.316,1.279 -28.185,12.795c-12.87,11.517 -21.138,24.483 -18.451,28.938c2.686,4.455 15.316,-1.279 28.186,-12.795Z" style="fill:#fff;"/></g><path d="M637.741,375.351c10.5,14.656 21.8,23.605 25.219,19.97c3.419,-3.634 -2.33,-18.484 -12.83,-33.14c-10.5,-14.656 -21.801,-23.604 -25.219,-19.97c-3.419,3.635 2.33,18.484 12.83,33.14Z" style="fill:#fff;"/><path d="M713.666,333.712c12.87,-11.516 21.137,-24.483 18.451,-28.938c-2.687,-4.454 -15.316,1.279 -28.186,12.796c-12.87,11.516 -21.137,24.483 -18.451,28.937c2.686,4.455 15.316,-1.278 28.186,-12.795Z" style="fill:#fff;"/><path d="M670.802,267.58c12.87,-11.517 21.137,-24.483 18.451,-28.938c-2.687,-4.455 -15.317,1.279 -28.186,12.795c-12.87,11.517 -21.137,24.483 -18.451,28.938c2.686,4.455 15.316,-1.279 28.186,-12.795Z" style="fill:#fff;"/><path d="M796.956,290.08c15.82,-2.652 28.162,-9.252 27.543,-14.727c-0.619,-5.476 -13.965,-7.769 -29.785,-5.116c-15.82,2.652 -28.161,9.251 -27.542,14.727c0.618,5.476 13.964,7.768 29.784,5.116Z" style="fill:#fff;"/><path d="M919.278,349.836c15.82,-2.652 28.162,-9.251 27.543,-14.727c-0.619,-5.476 -13.965,-7.768 -29.785,-5.116c-15.82,2.653 -28.161,9.252 -27.543,14.728c0.619,5.476 13.965,7.768 29.785,5.115Z" style="fill:#fff;"/></g></svg>