<?xml version="1.0" encoding="UTF-8" standalone="no"?><!DOCTYPE svg PUBLIC "-//W3C//DTD SVG 1.1//EN" "http://www.w3.org/Graphics/SVG/1.1/DTD/svg11.dtd"><svg width="100%" height="100%" viewBox="0 0 138892 78125" version="1.1" xmlns="http://www.w3.org/2000/svg" xmlns:xlink="http://www.w3.org/1999/xlink" xml:space="preserve" xmlns:serif="http://www.serif.com/" style="fill-rule:evenodd;clip-rule:evenodd;stroke-linejoin:round;stroke-miterlimit:2;"><rect x="-2617.5" y="-3729.01" width="154279" height="86511.5" style="fill:#f00;"/><path d="M96542.5,51045.8c2262.64,9210.92 8158.29,16668.3 31566,16746.2c19191.8,63.816 30045.1,-6190.08 32124.3,-17524.7c-21529.3,-3910.95 -42758.3,-3664.39 -63690.4,778.471l0,-0.017l0.167,0.004Z" style="fill:#ffbc42;"/><ellipse cx="128134" cy="47883.3" rx="35597.6" ry="11281.3" style="fill:#92673e;"/><g><path d="M156094,13617l-52624.6,7605.88l4305.58,32478.9l52624.6,-7605.88l-4305.58,-32478.9Z" style="fill:#ffb800;"/><path d="M118215,16881.7l44347.5,11718.2l-7308.38,27011.4l-44347.5,-11718.2l7308.38,-27011.4l-0.013,-0l0.013,-0Z" style="fill:#ffb800;"/></g><path d="M97934.6,35896.7c20312.5,5966.04 40892.5,6309.67 61743.3,1079.9c1044.41,2710.28 1771.03,5709.75 2176.49,8984.75c-22367.5,6020.38 -44423.3,5640.83 -66170,-1198.37c516.684,-3116.53 1215.73,-6102.67 2250.28,-8866.25l-0.038,0l-0.071,-0.025Z" style="fill:#c45024;"/><path d="M100229,36234.9c18833,4603.67 37914.2,4868.83 57246.2,833.3c968.333,2091.39 1642.03,4405.92 2017.95,6933.04c-20738.4,4645.62 -41187.8,4352.71 -61350.8,-924.721c479.063,-2404.86 1127.19,-4709.08 2086.37,-6841.62l0.017,0l0.246,0.005Z" style="fill:#ff7642;"/><path d="M100229,36234.9c18833,4603.67 37914.2,4868.83 57246.2,833.3c968.333,2091.39 1642.03,4405.92 2017.95,6933.04c-20738.4,4645.62 -41187.8,4352.71 -61350.8,-924.721c479.063,-2404.86 1127.19,-4709.08 2086.37,-6841.62l0.017,0l0.246,0.005Z" style="fill:#ff7642;"/><path d="M97899.2,35981.6c19991,1970.35 40245.3,2083.82 60766.2,356.65c1027.88,895.088 1742.98,1885.7 2142.03,2967.29c-22013.5,1988.28 -43720.4,1862.93 -65122.9,-395.779c508.508,-1029.25 1196.49,-2015.45 2214.67,-2928.16l0.071,0l-0.104,0Z" style="fill:#c45024;"/><path d="M128816,24951.4l-26273.8,2918.18l-4190.17,2809.48c0,0 -2436.72,4814.21 -3005.42,6983.12c-568.7,2168.92 4048.66,4778.67 5794,6199.21c1745.31,1420.55 4489.46,-3804.65 6191.79,-3804.65c1702.34,-0 3037.92,-1253.92 5089.79,-214.217c2051.91,1039.7 4249.79,1757.28 6874.58,2454.24c2624.81,696.942 6718.12,-2530.09 8932.33,-3355.89c178.684,-66.65 375.105,-104.809 586.913,-118.817l-0,-13870.6l-0.017,0l-0.021,-0.029Z" style="fill:#5ea014;"/><path d="M128328,24951.4l26273.8,2918.18l4190.21,2809.48c0,0 2436.7,4814.21 3005.4,6983.12c568.7,2168.92 -4048.66,4778.67 -5793.96,6199.21c-1745.33,1420.55 -4489.46,-3804.65 -6191.79,-3804.65c-1702.35,-0 -3037.92,-1253.92 -5089.83,-214.217c-2051.91,1039.7 -4249.75,1757.28 -6874.54,2454.24c-2624.81,696.942 -6718.12,-2530.09 -8932.33,-3355.89c-178.679,-66.65 -375.104,-104.809 -586.908,-118.817l-0,-13870.6l0.016,0l-0.05,-0.029Z" style="fill:#5ea014;"/><path d="M98270.4,30766.5c2172.05,-11487.6 7831.71,-20788.4 30302.4,-20885.4c18423.6,-79.616 28842.4,7720.12 30838.2,21856.4c-20667.4,4877.67 -41046.9,4570.12 -61140.8,-970.921l0,-0.087l0.209,0.008Z" style="fill:#ffbc42;"/><path d="M113643,20716c419.063,1153.23 540.417,2207.02 270.817,2351.76c-269.6,144.741 -828.717,-674.03 -1247.8,-1827.26c-419.062,-1153.21 -540.416,-2207 -270.816,-2351.73c269.6,-144.742 828.716,674.029 1247.8,1827.24Z" style="fill:#fff;"/><path d="M120287,20105.8c835.904,746.388 1372.88,1586.74 1198.4,1875.45c-174.496,288.7 -994.808,-82.879 -1830.71,-829.254c-835.92,-746.388 -1372.9,-1586.75 -1198.42,-1875.45c174.5,-288.696 994.812,82.867 1830.73,829.254Z" style="fill:#fff;"/><path d="M111004,24519.6c835.921,746.371 1372.9,1586.74 1198.42,1875.44c-174.5,288.712 -994.813,-82.867 -1830.71,-829.255c-835.92,-746.375 -1372.9,-1586.74 -1198.42,-1875.44c174.495,-288.713 994.808,82.867 1830.71,829.254Z" style="fill:#fff;"/><path d="M116413,27347.4c1027.53,171.908 1829.13,599.583 1788.94,954.479c-40.192,354.879 -907.033,503.454 -1934.57,331.546c-1027.53,-171.892 -1829.13,-599.584 -1788.94,-954.479c40.175,-354.88 907.033,-503.438 1934.57,-331.546Z" style="fill:#fff;"/><path d="M124358,23474.7c1027.53,171.891 1829.13,599.583 1788.94,954.479c-40.171,354.879 -907.029,503.437 -1934.56,331.546c-1027.54,-171.913 -1829.13,-599.584 -1788.94,-954.479c40.191,-354.88 907.029,-503.459 1934.57,-331.546Z" style="fill:#fff;"/><path d="M124548,16345c1027.53,171.892 1829.13,599.583 1788.96,954.479c-40.192,354.879 -907.05,503.438 -1934.58,331.546c-1027.53,-171.912 -1829.13,-599.583 -1788.94,-954.479c40.191,-354.879 907.033,-503.458 1934.57,-331.546Z" style="fill:#fff;"/><path d="M136344,24309.2c419.079,-1153.23 540.433,-2206.99 270.833,-2351.73c-269.6,-144.742 -828.717,674.008 -1247.8,1827.24c-419.062,1153.23 -540.417,2207.02 -270.817,2351.75c269.605,144.721 828.717,-674.029 1247.78,-1827.26Z" style="fill:#fff;"/><path d="M125842,29058.3c419.079,-1153.23 540.416,-2207.01 270.816,-2351.75c-269.6,-144.737 -828.712,674.029 -1247.78,1827.26c-419.083,1153.21 -540.437,2207 -270.833,2351.74c269.6,144.737 828.712,-674.029 1247.79,-1827.24Z" style="fill:#fff;"/><path d="M128773,23204.2c681.996,949.862 1415.99,1529.78 1638.04,1294.24c222.067,-235.558 -151.354,-1197.95 -833.35,-2147.8c-681.996,-949.862 -1415.97,-1529.79 -1638.04,-1294.25c-222.05,235.554 151.355,1197.95 833.35,2147.81Z" style="fill:#fff;"/><path d="M133705,20505.5c835.921,-746.388 1372.9,-1586.75 1198.42,-1875.45c-174.5,-288.7 -994.813,82.862 -1830.73,829.254c-835.905,746.387 -1372.88,1586.73 -1198.4,1875.45c174.496,288.7 994.809,-82.879 1830.71,-829.254Z" style="fill:#fff;"/><path d="M130921,16219.6c835.904,-746.387 1372.9,-1586.75 1198.4,-1875.45c-174.479,-288.716 -994.791,82.863 -1830.71,829.25c-835.904,746.375 -1372.9,1586.74 -1198.4,1875.45c174.5,288.696 994.812,-82.883 1830.71,-829.254Z" style="fill:#fff;"/><path d="M139115,17677.8c1027.53,-171.896 1829.13,-599.584 1788.94,-954.463c-40.192,-354.896 -907.033,-503.454 -1934.57,-331.562c-1027.54,171.908 -1829.13,599.583 -1788.96,954.479c40.192,354.896 907.046,503.454 1934.58,331.546Z" style="fill:#fff;"/></svg>