<?xml version="1.0" encoding="UTF-8" standalone="no"?><!DOCTYPE svg PUBLIC "-//W3C//DTD SVG 1.1//EN" "http://www.w3.org/Graphics/SVG/1.1/DTD/svg11.dtd"><svg width="100%" height="100%" viewBox="0 0 5209 5209" version="1.1" xmlns="http://www.w3.org/2000/svg" xmlns:xlink="http://www.w3.org/1999/xlink" xml:space="preserve" xmlns:serif="http://www.serif.com/" style="fill-rule:evenodd;clip-rule:evenodd;stroke-linejoin:round;stroke-miterlimit:2;"><rect id="Artboard1" x="0" y="0" width="5208.33" height="5208.33" style="fill:none;"/><g id="Artboard11" serif:id="Artboard1"><path d="M606.271,4137.28c135.1,551.175 487.121,997.421 1884.77,1002.08c1145.92,3.821 1793.95,-370.408 1918.1,-1048.67c-1285.48,-234.029 -2553.05,-219.271 -3802.86,46.587Z" style="fill:#ffbc42;"/><ellipse cx="2492.55" cy="3948.03" rx="2125.49" ry="675.067" style="fill:#92673e;"/><path d="M2670.08,3103.75l-1860.55,257.537l129.413,934.921l1860.55,-257.533l-129.413,-934.925Z" style="fill:#ffb800;"/><path d="M1984.41,2924.51l2241.57,599.354l-237.063,886.612l-2241.57,-599.354l237.062,-886.612Z" style="fill:#ffb800;"/><ellipse cx="2525.74" cy="2756.87" rx="2125.49" ry="675.067" style="fill:#92673e;"/><path d="M3222.39,1717.54l-2396.41,331.712l146.142,1055.81l2396.41,-331.712l-146.146,-1055.81Z" style="fill:#ffb800;"/><path d="M2305.96,1563.33l2014.87,538.738l-298.738,1117.26l-2014.87,-538.742l298.733,-1117.26Z" style="fill:#ffb800;"/><path d="M2566.46,1521.79l-1568.78,174.62l-250.192,168.117c0,0 -145.491,288.079 -179.45,417.867c-33.954,129.787 241.742,285.954 345.955,370.958c104.208,85.004 268.058,-227.667 369.7,-227.667c101.645,0 181.391,-75.037 303.908,-12.82c122.517,62.216 253.746,105.154 410.471,146.858c156.721,41.704 401.129,-151.396 533.337,-200.813c10.671,-3.987 22.396,-6.271 35.046,-7.112l0,-830.008Z" style="fill:#5ea014;"/><path d="M2537.35,1521.79l1568.78,174.62l250.192,168.117c0,0 145.492,288.079 179.45,417.867c33.954,129.787 -241.742,285.954 -345.954,370.958c-104.208,85.004 -268.058,-227.667 -369.704,-227.667c-101.642,0 -181.388,-75.037 -303.904,-12.82c-122.517,62.216 -253.746,105.154 -410.471,146.858c-156.725,41.704 -401.129,-151.396 -533.338,-200.813c-10.671,-3.987 -22.4,-6.271 -35.046,-7.112l0,-830.008Z" style="fill:#5ea014;"/><path d="M866.76,1238.83c1115.73,357.005 2246.16,377.567 3391.46,64.621c57.371,162.179 97.279,341.667 119.554,537.642c-1228.61,360.254 -2440.1,337.542 -3634.61,-71.708c28.379,-186.492 66.775,-365.184 123.6,-530.555Z" style="fill:#c45024;"/><path d="M1021.68,1416.27c998.795,248.8 2010.76,263.129 3036.03,45.033c51.354,113.025 87.083,238.113 107.02,374.688c-1099.85,251.066 -2184.38,235.237 -3253.7,-49.975c25.404,-129.967 59.779,-254.496 110.65,-369.746Z" style="fill:#ff7642;"/><path d="M2533.28,2712.94l-1568.78,174.624l-250.187,168.117c-0,0 -145.492,288.079 -179.45,417.867c-33.959,129.783 241.741,285.95 345.95,370.954c104.212,85.004 268.058,-227.667 369.704,-227.667c101.646,0 181.391,-75.033 303.908,-12.821c122.513,62.217 253.746,105.159 410.471,146.863c156.721,41.704 401.129,-151.4 533.337,-200.817c10.667,-3.987 22.396,-6.271 35.042,-7.108l0,-830.013Z" style="fill:#5ea014;"/><path d="M2504.16,2712.94l1568.78,174.624l250.191,168.117c0,0 145.492,288.079 179.446,417.867c33.958,129.783 -241.738,285.95 -345.95,370.954c-104.213,85.004 -268.058,-227.667 -369.704,-227.667c-101.642,0 -181.388,-75.033 -303.904,-12.821c-122.517,62.217 -253.75,105.159 -410.471,146.863c-156.725,41.704 -401.134,-151.4 -533.338,-200.817c-10.671,-3.987 -22.4,-6.271 -35.045,-7.108l-0,-830.013Z" style="fill:#5ea014;"/><path d="M771.181,1481.56c129.691,-687.413 467.621,-1243.96 1809.32,-1249.78c1100.05,-4.762 1722.14,461.967 1841.31,1307.88c-1234.03,291.875 -2450.85,273.476 -3650.63,-58.1Z" style="fill:#ffbc42;"/><path d="M1531.47,1107.75c49.913,44.663 81.975,94.95 71.559,112.225c-10.421,17.275 -59.4,-4.958 -109.313,-49.621c-49.908,-44.662 -81.971,-94.95 -71.554,-112.225c10.421,-17.279 59.4,4.959 109.308,49.621Z" style="fill:#fff;"/><path d="M1854.49,1276.97c61.354,10.287 109.217,35.879 106.817,57.116c-2.4,21.234 -54.159,30.125 -115.513,19.838c-61.35,-10.288 -109.212,-35.879 -106.816,-57.113c2.4,-21.237 54.158,-30.129 115.512,-19.841Z" style="fill:#fff;"/><path d="M2417.41,1379.35c25.025,-69.004 32.271,-132.063 16.171,-140.725c-16.096,-8.663 -49.479,40.333 -74.504,109.342c-25.021,69.008 -32.267,132.066 -16.167,140.725c16.096,8.662 49.479,-40.334 74.5,-109.342Z" style="fill:#fff;"/><path d="M1689.07,880.142c25.025,69.008 32.267,132.066 16.171,140.729c-16.096,8.658 -49.483,-40.333 -74.504,-109.342c-25.021,-69.008 -32.267,-132.066 -16.171,-140.729c16.1,-8.658 49.484,40.333 74.504,109.342Z" style="fill:#fff;"/><path d="M2085.75,843.629c49.913,44.663 81.975,94.95 71.555,112.225c-10.417,17.275 -59.396,-4.958 -109.309,-49.621c-49.908,-44.662 -81.975,-94.95 -71.554,-112.225c10.417,-17.275 59.4,4.959 109.308,49.621Z" style="fill:#fff;"/><path d="M2328.87,1045.22c61.355,10.287 109.217,35.879 106.817,57.117c-2.4,21.233 -54.158,30.125 -115.508,19.837c-61.354,-10.287 -109.217,-35.879 -106.817,-57.112c2.4,-21.238 54.158,-30.13 115.508,-19.842Z" style="fill:#fff;"/><path d="M3044.52,1095.17c25.025,-69.009 32.271,-132.067 16.171,-140.725c-16.096,-8.663 -49.479,40.333 -74.504,109.341c-25.021,69.009 -32.267,132.063 -16.167,140.725c16.096,8.663 49.48,-40.333 74.5,-109.341Z" style="fill:#fff;"/><path d="M3441.2,1131.68c49.908,-44.662 81.97,-94.95 71.554,-112.225c-10.421,-17.275 -59.4,4.959 -109.313,49.621c-49.908,44.663 -81.971,94.95 -71.554,112.225c10.421,17.279 59.4,-4.958 109.313,-49.621Z" style="fill:#fff;"/><path d="M2592.48,1029.04c40.72,56.841 84.545,91.541 97.804,77.45c13.258,-14.096 -9.038,-71.688 -49.759,-128.525c-40.72,-56.838 -84.545,-91.542 -97.804,-77.446c-13.258,14.096 9.038,71.683 49.759,128.521Z" style="fill:#fff;"/><path d="M2886.93,867.554c49.908,-44.662 81.97,-94.95 71.554,-112.225c-10.417,-17.275 -59.4,4.959 -109.309,49.621c-49.912,44.667 -81.975,94.95 -71.558,112.229c10.421,17.275 59.4,-4.962 109.313,-49.625Z" style="fill:#fff;"/><path d="M3684.33,930.088c61.35,-10.284 109.212,-35.88 106.812,-57.113c-2.396,-21.237 -54.158,-30.129 -115.508,-19.842c-61.354,10.288 -109.217,35.88 -106.817,57.117c2.4,21.233 54.158,30.125 115.513,19.838Z" style="fill:#fff;"/><path d="M2340.21,618.588c61.354,10.287 109.216,35.879 106.816,57.116c-2.4,21.238 -54.158,30.125 -115.508,19.838c-61.354,-10.284 -109.217,-35.879 -106.817,-57.113c2.4,-21.237 54.159,-30.129 115.509,-19.841Z" style="fill:#fff;"/><path d="M2720.69,611.083c49.909,-44.662 81.971,-94.95 71.554,-112.225c-10.42,-17.275 -59.4,4.959 -109.308,49.621c-49.912,44.663 -81.975,94.95 -71.558,112.225c10.421,17.275 59.4,-4.958 109.312,-49.621Z" style="fill:#fff;"/><path d="M3209.94,698.342c61.354,-10.288 109.217,-35.879 106.817,-57.113c-2.4,-21.237 -54.159,-30.129 -115.509,-19.841c-61.354,10.287 -109.216,35.879 -106.816,57.116c2.4,21.234 54.158,30.125 115.508,19.838Z" style="fill:#fff;"/></g></svg>