<?xml version="1.0" encoding="UTF-8" standalone="no"?><!DOCTYPE svg PUBLIC "-//W3C//DTD SVG 1.1//EN" "http://www.w3.org/Graphics/SVG/1.1/DTD/svg11.dtd"><svg width="100%" height="100%" viewBox="0 0 1250 1250" version="1.1" xmlns="http://www.w3.org/2000/svg" xmlns:xlink="http://www.w3.org/1999/xlink" xml:space="preserve" xmlns:serif="http://www.serif.com/" style="fill-rule:evenodd;clip-rule:evenodd;stroke-linejoin:round;stroke-miterlimit:2;"><g id="Layer1"></g><rect id="Artboard1" x="0" y="0" width="1250" height="1250" style="fill:none;"/><g id="Artboard11" serif:id="Artboard1"><path d="M145.505,992.948c32.424,132.282 116.909,239.381 452.344,240.499c275.021,0.917 430.548,-88.898 460.343,-251.68c-308.516,-56.167 -612.733,-52.625 -912.687,11.181Z" style="fill:#ffbc42;"/><ellipse cx="598.213" cy="947.526" rx="510.117" ry="162.016" style="fill:#92673e;"/><path d="M640.82,744.9l-446.533,61.809l31.059,224.381l446.533,-61.808l-31.059,-224.382Z" style="fill:#ffb800;"/><path d="M476.258,701.883l537.976,143.845l-56.895,212.787l-537.976,-143.845l56.895,-212.787Z" style="fill:#ffb800;"/><ellipse cx="622.826" cy="661.649" rx="510.117" ry="162.016" style="fill:#92673e;"/><path d="M790.023,412.209l-575.138,79.611l35.074,253.394l575.139,-79.611l-35.075,-253.394Z" style="fill:#ffb800;"/><path d="M570.08,375.199l483.569,129.297l-71.697,268.143l-483.568,-129.298l71.696,-268.142Z" style="fill:#ffb800;"/><path d="M632.6,365.229l-376.506,41.909l-60.046,40.348c-0,0 -34.918,69.139 -43.068,100.288c-8.149,31.149 58.018,68.629 83.029,89.03c25.01,20.401 64.334,-54.64 88.728,-54.64c24.395,-0 43.534,-18.009 72.938,-3.077c29.404,14.932 60.899,25.237 98.513,35.246c37.613,10.009 96.271,-36.335 128.001,-48.195c2.561,-0.957 5.375,-1.505 8.411,-1.707l-0,-199.202Z" style="fill:#5ea014;"/><path d="M625.612,365.229l376.506,41.909l60.046,40.348c-0,0 34.918,69.139 43.068,100.288c8.149,31.149 -58.018,68.629 -83.029,89.03c-25.01,20.401 -64.334,-54.64 -88.729,-54.64c-24.394,-0 -43.533,-18.009 -72.937,-3.077c-29.404,14.932 -60.899,25.237 -98.513,35.246c-37.614,10.009 -96.271,-36.335 -128.001,-48.195c-2.561,-0.957 -5.376,-1.505 -8.411,-1.707l0,-199.202Z" style="fill:#5ea014;"/><path d="M224.671,297.32c267.775,85.681 539.079,90.616 813.95,15.509c13.769,38.923 23.347,82 28.693,129.034c-294.867,86.461 -585.625,81.01 -872.307,-17.21c6.811,-44.758 16.026,-87.644 29.664,-127.333Z" style="fill:#c45024;"/><path d="M261.851,339.904c239.711,59.712 482.582,63.151 728.646,10.808c12.325,27.126 20.9,57.147 25.685,89.925c-263.964,60.256 -524.25,56.457 -780.887,-11.994c6.097,-31.192 14.347,-61.079 26.556,-88.739Z" style="fill:#ff7642;"/><path d="M607.986,651.105l-376.506,41.91l-60.045,40.348c-0,-0 -34.918,69.139 -43.068,100.288c-8.15,31.148 58.018,68.628 83.028,89.029c25.011,20.401 64.334,-54.64 88.729,-54.64c24.395,-0 43.534,-18.008 72.938,-3.077c29.403,14.932 60.899,25.238 98.513,35.247c37.613,10.009 96.271,-36.336 128.001,-48.196c2.56,-0.957 5.375,-1.505 8.41,-1.706l0,-199.203Z" style="fill:#5ea014;"/><path d="M600.999,651.105l376.506,41.91l60.046,40.348c-0,-0 34.918,69.139 43.067,100.288c8.15,31.148 -58.017,68.628 -83.028,89.029c-25.011,20.401 -64.334,-54.64 -88.729,-54.64c-24.394,-0 -43.533,-18.008 -72.937,-3.077c-29.404,14.932 -60.9,25.238 -98.513,35.247c-37.614,10.009 -96.272,-36.336 -128.001,-48.196c-2.561,-0.957 -5.376,-1.505 -8.411,-1.706l-0,-199.203Z" style="fill:#5ea014;"/><path d="M201.732,355.575c31.126,-164.979 112.229,-298.551 434.236,-299.946c264.011,-1.143 413.313,110.872 441.915,313.89c-296.166,70.05 -588.205,65.634 -876.151,-13.944Z" style="fill:#ffbc42;"/><path d="M384.202,265.861c11.979,10.719 19.674,22.788 17.174,26.934c-2.501,4.146 -14.256,-1.19 -26.235,-11.909c-11.978,-10.719 -19.673,-22.788 -17.173,-26.934c2.501,-4.147 14.256,1.19 26.234,11.909Z" style="fill:#fff;"/><path d="M461.726,306.472c14.725,2.469 26.212,8.611 25.636,13.708c-0.576,5.096 -12.998,7.23 -27.723,4.761c-14.724,-2.469 -26.211,-8.611 -25.636,-13.707c0.576,-5.097 12.998,-7.231 27.723,-4.762Z" style="fill:#fff;"/><path d="M596.827,331.044c6.006,-16.561 7.745,-31.695 3.881,-33.774c-3.863,-2.079 -11.875,9.68 -17.881,26.242c-6.005,16.562 -7.744,31.696 -3.88,33.774c3.863,2.079 11.875,-9.68 17.88,-26.242Z" style="fill:#fff;"/><path d="M422.026,211.234c6.006,16.562 7.744,31.696 3.881,33.775c-3.863,2.078 -11.876,-9.68 -17.881,-26.242c-6.005,-16.562 -7.744,-31.696 -3.881,-33.775c3.864,-2.078 11.876,9.68 17.881,26.242Z" style="fill:#fff;"/><path d="M517.228,202.471c11.979,10.719 19.674,22.788 17.173,26.934c-2.5,4.146 -14.255,-1.19 -26.234,-11.909c-11.978,-10.719 -19.674,-22.788 -17.173,-26.934c2.5,-4.146 14.256,1.19 26.234,11.909Z" style="fill:#fff;"/><path d="M575.578,250.853c14.725,2.469 26.212,8.611 25.636,13.708c-0.576,5.096 -12.998,7.23 -27.722,4.761c-14.725,-2.469 -26.212,-8.611 -25.636,-13.707c0.576,-5.097 12.998,-7.231 27.722,-4.762Z" style="fill:#fff;"/><path d="M747.334,262.84c6.006,-16.562 7.745,-31.696 3.881,-33.774c-3.863,-2.079 -11.875,9.68 -17.881,26.242c-6.005,16.562 -7.744,31.695 -3.88,33.774c3.863,2.079 11.875,-9.68 17.88,-26.242Z" style="fill:#fff;"/><path d="M842.537,271.603c11.978,-10.719 19.673,-22.788 17.173,-26.934c-2.501,-4.146 -14.256,1.19 -26.235,11.909c-11.978,10.719 -19.673,22.788 -17.173,26.934c2.501,4.147 14.256,-1.19 26.235,-11.909Z" style="fill:#fff;"/><path d="M638.843,246.969c9.773,13.642 20.291,21.97 23.473,18.588c3.182,-3.383 -2.169,-17.205 -11.942,-30.846c-9.773,-13.641 -20.291,-21.97 -23.473,-18.587c-3.182,3.383 2.169,17.204 11.942,30.845Z" style="fill:#fff;"/><path d="M709.511,208.213c11.978,-10.719 19.673,-22.788 17.173,-26.934c-2.5,-4.146 -14.256,1.19 -26.234,11.909c-11.979,10.72 -19.674,22.788 -17.174,26.935c2.501,4.146 14.256,-1.191 26.235,-11.91Z" style="fill:#fff;"/><path d="M900.887,223.221c14.724,-2.468 26.211,-8.611 25.635,-13.707c-0.575,-5.097 -12.998,-7.231 -27.722,-4.762c-14.725,2.469 -26.212,8.611 -25.636,13.708c0.576,5.096 12.998,7.23 27.723,4.761Z" style="fill:#fff;"/><path d="M578.298,148.461c14.725,2.469 26.212,8.611 25.636,13.708c-0.576,5.097 -12.998,7.23 -27.722,4.761c-14.725,-2.468 -26.212,-8.611 -25.636,-13.707c0.576,-5.097 12.998,-7.231 27.722,-4.762Z" style="fill:#fff;"/><path d="M669.615,146.66c11.978,-10.719 19.673,-22.788 17.173,-26.934c-2.501,-4.146 -14.256,1.19 -26.234,11.909c-11.979,10.719 -19.674,22.788 -17.174,26.934c2.501,4.146 14.256,-1.19 26.235,-11.909Z" style="fill:#fff;"/><path d="M787.034,167.602c14.725,-2.469 26.212,-8.611 25.636,-13.707c-0.576,-5.097 -12.998,-7.231 -27.722,-4.762c-14.725,2.469 -26.212,8.611 -25.636,13.708c0.576,5.096 12.998,7.23 27.722,4.761Z" style="fill:#fff;"/></g></svg>