<?xml version="1.0" encoding="UTF-8" standalone="no"?><!DOCTYPE svg PUBLIC "-//W3C//DTD SVG 1.1//EN" "http://www.w3.org/Graphics/SVG/1.1/DTD/svg11.dtd"><svg width="100%" height="100%" viewBox="0 0 5209 5209" version="1.1" xmlns="http://www.w3.org/2000/svg" xmlns:xlink="http://www.w3.org/1999/xlink" xml:space="preserve" xmlns:serif="http://www.serif.com/" style="fill-rule:evenodd;clip-rule:evenodd;stroke-linecap:round;stroke-linejoin:round;stroke-miterlimit:1.5;"><rect id="Artboard1" x="0" y="0" width="5208.33" height="5208.33" style="fill:none;"/><g id="Artboard11" serif:id="Artboard1"><path d="M987.43,308.626l-0,2332.93l355.943,0l-0,-2090.71l-355.943,-242.223Z" style="fill:#fed373;"/><path d="M1685.43,381.863l-0,2332.93l355.943,-0l-0,-2090.71l-355.943,-242.223Z" style="fill:#fed373;"/><path d="M2365.36,381.863l0,2332.93l355.943,-0l0,-2090.71l-355.943,-242.223Z" style="fill:#fed373;"/><path d="M3060.04,406.784l0,2332.93l355.944,-0l-0,-2090.71l-355.944,-242.223Z" style="fill:#fed373;"/><path d="M1698.42,163.269l-0,2332.93l-355.943,0l-0,-2090.71l355.943,-242.223Z" style="fill:#e9c470;"/><path d="M2383.64,163.269l0,2332.93l-355.943,0l0,-2090.71l355.943,-242.223Z" style="fill:#e9c470;"/><path d="M3068.05,284.359l-0,2332.93l-355.943,0l-0,-2090.71l355.943,-242.223Z" style="fill:#e9c470;"/><path d="M3767.35,284.359l0,2332.93l-355.943,0l-0,-2090.71l355.943,-242.223Z" style="fill:#e9c470;"/><path d="M819.213,1164.08c1078.44,560.959 2167.13,553.109 3149.36,53.046l-365.233,3793.98c-886.092,-203.438 -1704.38,-242.58 -2424.07,-106.742l-360.062,-3740.29Z" style="fill:#ff1e00;"/><circle cx="2374.81" cy="3222.21" r="630.45" style="fill:#ffb2a8;stroke:#d82f19;stroke-width:5.21px;"/><path d="M1131.23,4405.21c744.525,-145.25 1595.8,-101.85 2519.06,118.238l-46.876,486.916c-886.087,-203.741 -1704.45,-243.245 -2424.31,-107.82l-47.875,-497.334Z" style="fill:#ffb2a8;"/><path d="M819.213,1164.08c1078.44,560.959 2167.13,553.109 3149.36,53.046l-51.704,537.092c-952.946,466.6 -2003.29,472.183 -3045.89,-52.379l-51.766,-537.759Z" style="fill:#ffb2a8;"/></g></svg>