<?xml version="1.0" encoding="UTF-8" standalone="no"?><!DOCTYPE svg PUBLIC "-//W3C//DTD SVG 1.1//EN" "http://www.w3.org/Graphics/SVG/1.1/DTD/svg11.dtd"><svg width="100%" height="100%" viewBox="0 0 5209 5209" version="1.1" xmlns="http://www.w3.org/2000/svg" xmlns:xlink="http://www.w3.org/1999/xlink" xml:space="preserve" xmlns:serif="http://www.serif.com/" style="fill-rule:evenodd;clip-rule:evenodd;stroke-linejoin:round;stroke-miterlimit:2;"><rect id="Artboard1" x="0" y="0" width="5208.33" height="5208.33" style="fill:none;"/><g id="Artboard11" serif:id="Artboard1"><path d="M589.621,3353.93c145.146,592.179 523.358,1071.62 2024.97,1076.63c1231.16,4.1 1927.4,-397.966 2060.78,-1126.68c-1381.11,-251.437 -2742.97,-235.583 -4085.75,50.05Z" style="fill:#ffbc42;"/><ellipse cx="2616.22" cy="3150.59" rx="2283.6" ry="725.283" style="fill:#92673e;"/><path d="M678.942,2379.97c1303.05,383.562 2623.27,405.654 3960.85,69.429c67,174.246 113.612,367.083 139.625,577.638c-1434.89,387.054 -2849.78,362.654 -4244.83,-77.046c33.146,-200.363 77.988,-392.342 144.355,-570.021Z" style="fill:#c45024;"/><path d="M826.133,2401.72c1208.15,295.975 2432.21,313.021 3672.38,53.571c62.121,134.458 105.338,283.258 129.455,445.733c-1330.38,298.671 -2642.22,279.837 -3935.67,-59.45c30.733,-154.613 72.312,-302.754 133.841,-439.854Z" style="fill:#ff7642;"/><path d="M826.133,2401.72c1208.15,295.975 2432.21,313.021 3672.38,53.571c62.121,134.458 105.338,283.258 129.455,445.733c-1330.38,298.671 -2642.22,279.837 -3935.67,-59.45c30.733,-154.613 72.312,-302.754 133.841,-439.854Z" style="fill:#ff7642;"/><path d="M676.658,2385.44c1282.42,126.67 2581.76,133.97 3898.17,22.925c65.938,57.549 111.813,121.233 137.413,190.77c-1412.17,127.829 -2804.68,119.771 -4177.67,-25.441c32.621,-66.175 76.754,-129.58 142.071,-188.255l0.012,0Z" style="fill:#c45024;"/><path d="M2659.97,1676.3l-1685.48,187.612l-268.8,180.625c-0,0 -156.317,309.509 -192.796,448.95c-36.483,139.442 259.721,307.225 371.683,398.555c111.963,91.325 288,-244.605 397.205,-244.605c109.208,0 194.883,-80.616 326.516,-13.775c131.629,66.846 272.621,112.98 441.004,157.788c168.384,44.804 430.971,-162.663 573.013,-215.754c11.462,-4.284 24.062,-6.738 37.65,-7.638l-0,-891.758Z" style="fill:#5ea014;"/><path d="M2628.69,1676.3l1685.48,187.612l268.804,180.625c-0,0 156.312,309.509 192.796,448.95c36.483,139.442 -259.721,307.225 -371.688,398.555c-111.962,91.325 -287.996,-244.605 -397.204,-244.605c-109.204,0 -194.883,-80.616 -326.513,-13.775c-131.629,66.846 -272.625,112.98 -441.004,157.788c-168.383,44.804 -430.971,-162.663 -573.012,-215.754c-11.467,-4.284 -24.067,-6.738 -37.654,-7.638l-0,-891.758Z" style="fill:#5ea014;"/><path d="M700.475,2050.15c139.338,-738.55 502.408,-1336.5 1943.91,-1342.75c1181.88,-5.117 1850.25,496.333 1978.29,1405.17c-1325.82,313.592 -2633.17,293.821 -3922.2,-62.421Z" style="fill:#ffbc42;"/><path d="M1686.65,1403.99c26.887,74.141 34.671,141.887 17.375,151.196c-17.296,9.304 -53.163,-43.334 -80.046,-117.475c-26.883,-74.142 -34.667,-141.892 -17.375,-151.196c17.296,-9.309 53.163,43.333 80.046,117.475Z" style="fill:#fff;"/><path d="M2112.83,1364.76c53.625,47.983 88.075,102.012 76.879,120.57c-11.191,18.563 -63.816,-5.325 -117.441,-53.312c-53.621,-47.983 -88.071,-102.013 -76.875,-120.571c11.191,-18.563 63.816,5.325 117.437,53.313Z" style="fill:#fff;"/><path d="M1517.33,1648.53c53.625,47.988 88.071,102.013 76.879,120.575c-11.196,18.563 -63.816,-5.329 -117.441,-53.312c-53.625,-47.988 -88.071,-102.013 -76.88,-120.575c11.196,-18.563 63.817,5.329 117.442,53.312Z" style="fill:#fff;"/><path d="M1864.37,1830.33c65.917,11.054 117.337,38.55 114.758,61.367c-2.575,22.813 -58.187,32.367 -124.1,21.313c-65.917,-11.051 -117.342,-38.546 -114.762,-61.363c2.575,-22.817 58.187,-32.367 124.104,-21.317Z" style="fill:#fff;"/><path d="M2374.04,1581.35c65.916,11.05 117.341,38.546 114.762,61.362c-2.579,22.817 -58.187,32.367 -124.104,21.317c-65.917,-11.054 -117.338,-38.55 -114.763,-61.367c2.58,-22.812 58.188,-32.366 124.105,-21.312Z" style="fill:#fff;"/><path d="M2386.22,1122.98c65.917,11.05 117.337,38.55 114.758,61.363c-2.575,22.816 -58.183,32.37 -124.1,21.316c-65.916,-11.05 -117.342,-38.546 -114.762,-61.362c2.579,-22.817 58.187,-32.367 124.104,-21.317Z" style="fill:#fff;"/><path d="M3142.93,1635.01c26.883,-74.142 34.671,-141.892 17.375,-151.196c-17.296,-9.309 -53.162,43.333 -80.046,117.475c-26.883,74.141 -34.671,141.887 -17.375,151.196c17.296,9.304 53.163,-43.334 80.046,-117.475Z" style="fill:#fff;"/><path d="M2469.17,1940.34c26.883,-74.142 34.666,-141.892 17.375,-151.196c-17.296,-9.309 -53.163,43.333 -80.046,117.475c-26.883,74.141 -34.671,141.887 -17.375,151.196c17.296,9.304 53.162,-43.334 80.046,-117.476Z" style="fill:#fff;"/><path d="M3569.11,1674.24c53.624,-47.988 88.075,-102.017 76.879,-120.575c-11.192,-18.563 -63.817,5.325 -117.442,53.312c-53.621,47.984 -88.071,102.013 -76.879,120.575c11.196,18.559 63.821,-5.329 117.441,-53.312Z" style="fill:#fff;"/><path d="M2657.25,1563.96c43.75,61.066 90.834,98.354 105.079,83.208c14.246,-15.142 -9.708,-77.017 -53.458,-138.083c-43.75,-61.067 -90.838,-98.35 -105.079,-83.209c-14.246,15.146 9.708,77.017 53.458,138.084Z" style="fill:#fff;"/><path d="M2973.61,1390.47c53.625,-47.984 88.071,-102.013 76.88,-120.575c-11.196,-18.559 -63.817,5.329 -117.442,53.316c-53.625,47.984 -88.071,102.013 -76.879,120.571c11.191,18.563 63.816,-5.325 117.441,-53.312Z" style="fill:#fff;"/><path d="M2795.01,1114.92c53.625,-47.988 88.071,-102.013 76.88,-120.575c-11.196,-18.563 -63.821,5.329 -117.442,53.312c-53.625,47.988 -88.071,102.013 -76.879,120.575c11.191,18.563 63.816,-5.329 117.441,-53.312Z" style="fill:#fff;"/><path d="M3320.65,1208.67c65.917,-11.05 117.342,-38.55 114.763,-61.363c-2.58,-22.816 -58.188,-32.371 -124.105,-21.316c-65.916,11.05 -117.337,38.545 -114.758,61.362c2.575,22.817 58.183,32.367 124.1,21.317Z" style="fill:#fff;"/><path d="M3830.33,1457.65c65.917,-11.05 117.342,-38.546 114.763,-61.362c-2.58,-22.817 -58.188,-32.367 -124.105,-21.317c-65.916,11.054 -117.337,38.55 -114.762,61.367c2.579,22.816 58.187,32.366 124.104,21.312Z" style="fill:#fff;"/></g></svg>