<?xml version="1.0" encoding="UTF-8" standalone="no"?><!DOCTYPE svg PUBLIC "-//W3C//DTD SVG 1.1//EN" "http://www.w3.org/Graphics/SVG/1.1/DTD/svg11.dtd"><svg width="100%" height="100%" viewBox="0 0 8000 4500" version="1.1" xmlns="http://www.w3.org/2000/svg" xmlns:xlink="http://www.w3.org/1999/xlink" xml:space="preserve" xmlns:serif="http://www.serif.com/" style="fill-rule:evenodd;clip-rule:evenodd;stroke-linejoin:round;stroke-miterlimit:2;"><path d="M5560.84,2940.24c130.328,530.548 469.918,960.096 1818.2,964.581c1105.45,3.676 1730.6,-356.548 1850.36,-1009.42c-1240.09,-225.271 -2462.89,-211.069 -3668.56,44.84Z" style="fill:#ffbc42;"/><ellipse cx="7380.5" cy="2758.07" rx="2050.42" ry="649.803" style="fill:#92673e;"/><clipPath id="_clip1"><ellipse cx="7380.5" cy="2758.07" rx="2050.42" ry="649.803"/></clipPath><g clip-path="url(#_clip1)"><path d="M8964.35,649.426l-3357.28,463.698l274.684,1980.1l3357.28,-463.698l-274.684,-1980.1Z" style="fill:#ffb800;"/><path d="M6089.34,316.003l3274.27,873.567l-539.59,2013.64l-3274.27,-873.567l539.591,-2013.64Z" style="fill:#ffb800;"/></g><path d="M5641.04,2067.65c1170,343.644 2355.41,363.437 3556.41,62.202c60.158,156.112 102.011,328.881 125.366,517.521c-1288.37,346.774 -2558.78,324.911 -3811.39,-69.026c29.761,-179.512 70.026,-351.513 129.616,-510.697Z" style="fill:#c45024;"/><path d="M5773.2,2087.13c1084.78,265.172 2183.86,280.445 3297.39,47.998c55.776,120.464 94.581,253.78 116.234,399.344c-1194.53,267.587 -2372.42,250.716 -3533.8,-53.264c27.594,-138.52 64.926,-271.243 120.175,-394.078Z" style="fill:#ff7642;"/><path d="M5773.2,2087.13c1084.78,265.172 2183.86,280.445 3297.39,47.998c55.776,120.464 94.581,253.78 116.234,399.344c-1194.53,267.587 -2372.42,250.716 -3533.8,-53.264c27.594,-138.52 64.926,-271.243 120.175,-394.078Z" style="fill:#ff7642;"/><path d="M5638.99,2072.54c1151.48,113.492 2318.13,120.028 3500.13,20.543c59.206,51.557 100.396,108.616 123.381,170.916c-1267.98,114.525 -2518.29,107.305 -3751.08,-22.797c29.29,-59.285 68.918,-116.09 127.565,-168.662Z" style="fill:#c45024;"/><path d="M7419.79,1437.2l-1513.37,168.087l-241.354,161.826c-0,0 -140.355,277.298 -173.112,402.227c-32.757,124.93 233.203,275.251 333.734,357.075c100.53,81.824 258.592,-219.148 356.646,-219.148c98.055,0 174.984,-72.226 293.173,-12.339c118.19,59.887 244.787,101.219 395.975,141.364c151.189,40.144 386.964,-145.733 514.503,-193.299c10.292,-3.839 21.606,-6.037 33.806,-6.844l0,-798.949Z" style="fill:#5ea014;"/><path d="M7391.7,1437.2l1513.37,168.087l241.355,161.826c-0,0 140.354,277.298 173.111,402.227c32.757,124.93 -233.203,275.251 -333.733,357.075c-100.531,81.824 -258.592,-219.148 -356.647,-219.148c-98.055,0 -174.984,-72.226 -293.173,-12.339c-118.19,59.887 -244.786,101.219 -395.975,141.364c-151.189,40.144 -386.964,-145.733 -514.503,-193.299c-10.292,-3.839 -21.606,-6.037 -33.806,-6.844l-0,-798.949Z" style="fill:#5ea014;"/><path d="M5660.37,1772.15c125.11,-661.688 451.106,-1197.41 1745.42,-1203c1061.2,-4.586 1661.32,444.678 1776.28,1258.93c-1190.44,280.953 -2364.3,263.239 -3521.7,-55.925Z" style="fill:#ffbc42;"/><path d="M6545.85,1193.24c24.138,66.426 31.128,127.124 15.599,135.461c-15.529,8.337 -47.734,-38.824 -71.873,-105.25c-24.138,-66.425 -31.128,-127.123 -15.599,-135.46c15.529,-8.337 47.734,38.824 71.873,105.249Z" style="fill:#fff;"/><path d="M6928.52,1158.09c48.148,42.992 79.078,91.396 69.028,108.026c-10.051,16.629 -57.301,-4.774 -105.449,-47.765c-48.149,-42.992 -79.079,-91.397 -69.029,-108.026c10.051,-16.629 57.301,4.773 105.45,47.765Z" style="fill:#fff;"/><path d="M6393.82,1412.33c48.149,42.991 79.079,91.396 69.029,108.025c-10.051,16.63 -57.301,-4.773 -105.449,-47.765c-48.149,-42.991 -79.079,-91.396 -69.029,-108.025c10.051,-16.63 57.301,4.773 105.449,47.765Z" style="fill:#fff;"/><path d="M6705.42,1575.21c59.186,9.902 105.358,34.536 103.043,54.978c-2.315,20.441 -52.245,28.999 -111.431,19.097c-59.186,-9.901 -105.358,-34.536 -103.043,-54.978c2.314,-20.441 52.245,-28.998 111.431,-19.097Z" style="fill:#fff;"/><path d="M7163.05,1352.14c59.186,9.901 105.358,34.536 103.043,54.978c-2.314,20.441 -52.245,28.998 -111.431,19.097c-59.186,-9.902 -105.358,-34.536 -103.043,-54.978c2.315,-20.441 52.245,-28.999 111.431,-19.097Z" style="fill:#fff;"/><path d="M7173.99,941.471c59.186,9.901 105.358,34.536 103.044,54.978c-2.315,20.441 -52.246,28.998 -111.432,19.097c-59.186,-9.902 -105.358,-34.536 -103.043,-54.978c2.315,-20.441 52.245,-28.999 111.431,-19.097Z" style="fill:#fff;"/><path d="M7853.43,1400.21c24.139,-66.426 31.129,-127.123 15.6,-135.46c-15.529,-8.337 -47.734,38.823 -71.873,105.249c-24.138,66.426 -31.128,127.124 -15.599,135.461c15.529,8.336 47.734,-38.824 71.872,-105.25Z" style="fill:#fff;"/><path d="M7248.47,1673.76c24.139,-66.426 31.128,-127.124 15.599,-135.461c-15.529,-8.337 -47.734,38.824 -71.872,105.25c-24.139,66.425 -31.129,127.123 -15.6,135.46c15.529,8.337 47.734,-38.824 71.873,-105.249Z" style="fill:#fff;"/><path d="M7417.35,1336.56c39.283,54.712 81.561,88.115 94.351,74.548c12.791,-13.568 -8.718,-69.002 -48.001,-123.713c-39.283,-54.712 -81.56,-88.116 -94.351,-74.549c-12.79,13.568 8.718,69.002 48.001,123.714Z" style="fill:#fff;"/><path d="M7701.4,1181.12c48.149,-42.992 79.079,-91.397 69.029,-108.026c-10.051,-16.629 -57.301,4.773 -105.45,47.765c-48.148,42.992 -79.078,91.396 -69.028,108.026c10.051,16.629 57.301,-4.774 105.449,-47.765Z" style="fill:#fff;"/><path d="M7541.03,934.247c48.148,-42.992 79.079,-91.397 69.028,-108.026c-10.05,-16.63 -57.3,4.773 -105.449,47.765c-48.148,42.991 -79.079,91.396 -69.028,108.026c10.051,16.629 57.301,-4.774 105.449,-47.765Z" style="fill:#fff;"/><path d="M8013.01,1018.24c59.186,-9.901 105.358,-34.536 103.043,-54.977c-2.315,-20.442 -52.245,-28.999 -111.431,-19.098c-59.186,9.902 -105.358,34.536 -103.044,54.978c2.315,20.442 52.246,28.999 111.432,19.097Z" style="fill:#fff;"/><path d="M2087.63,2940.24c-130.327,530.548 -469.917,960.096 -1818.2,964.581c-1105.45,3.676 -1730.6,-356.548 -1850.36,-1009.42c1240.09,-225.271 2462.89,-211.069 3668.56,44.84Z" style="fill:#ffbc42;"/><ellipse cx="267.965" cy="2758.07" rx="2050.42" ry="649.803" style="fill:#92673e;"/><clipPath id="_clip2"><ellipse cx="267.965" cy="2758.07" rx="2050.42" ry="649.803"/></clipPath><g clip-path="url(#_clip2)"><path d="M-1315.89,649.426l3357.28,463.698l-274.684,1980.1l-3357.28,-463.698l274.684,-1980.1Z" style="fill:#ffb800;"/><path d="M1559.13,316.003l-3274.27,873.567l539.59,2013.64l3274.27,-873.567l-539.59,-2013.64Z" style="fill:#ffb800;"/></g><path d="M2007.43,2067.65c-1170,343.644 -2355.41,363.437 -3556.41,62.202c-60.157,156.112 -102.011,328.881 -125.365,517.521c1288.37,346.774 2558.78,324.911 3811.39,-69.026c-29.762,-179.512 -70.027,-351.513 -129.616,-510.697Z" style="fill:#c45024;"/><path d="M1875.27,2087.13c-1084.78,265.172 -2183.86,280.445 -3297.39,47.998c-55.776,120.464 -94.581,253.78 -116.235,399.344c1194.53,267.587 2372.42,250.716 3533.8,-53.264c-27.594,-138.52 -64.926,-271.243 -120.176,-394.078Z" style="fill:#ff7642;"/><path d="M1875.27,2087.13c-1084.78,265.172 -2183.86,280.445 -3297.39,47.998c-55.776,120.464 -94.581,253.78 -116.235,399.344c1194.53,267.587 2372.42,250.716 3533.8,-53.264c-27.594,-138.52 -64.926,-271.243 -120.176,-394.078Z" style="fill:#ff7642;"/><path d="M2009.48,2072.54c-1151.48,113.492 -2318.13,120.028 -3500.13,20.543c-59.206,51.557 -100.397,108.616 -123.382,170.916c1267.98,114.525 2518.29,107.305 3751.08,-22.797c-29.291,-59.285 -68.918,-116.09 -127.565,-168.662Z" style="fill:#c45024;"/><path d="M228.681,1437.2l1513.37,168.087l241.355,161.826c0,0 140.354,277.298 173.112,402.227c32.757,124.93 -233.203,275.251 -333.734,357.075c-100.531,81.824 -258.592,-219.148 -356.647,-219.148c-98.054,0 -174.983,-72.226 -293.173,-12.339c-118.189,59.887 -244.786,101.219 -395.975,141.364c-151.188,40.144 -386.964,-145.733 -514.502,-193.299c-10.293,-3.839 -21.607,-6.037 -33.807,-6.844l0,-798.949Z" style="fill:#5ea014;"/><path d="M256.767,1437.2l-1513.37,168.087l-241.355,161.826c0,0 -140.354,277.298 -173.111,402.227c-32.758,124.93 233.202,275.251 333.733,357.075c100.531,81.824 258.592,-219.148 356.647,-219.148c98.054,0 174.983,-72.226 293.173,-12.339c118.19,59.887 244.786,101.219 395.975,141.364c151.188,40.144 386.964,-145.733 514.502,-193.299c10.293,-3.839 21.607,-6.037 33.807,-6.844l-0,-798.949Z" style="fill:#5ea014;"/><path d="M1988.1,1772.15c-125.11,-661.688 -451.106,-1197.41 -1745.42,-1203c-1061.2,-4.586 -1661.32,444.678 -1776.29,1258.93c1190.44,280.953 2364.3,263.239 3521.7,-55.925Z" style="fill:#ffbc42;"/><path d="M1102.62,1193.24c-24.138,66.426 -31.128,127.124 -15.599,135.461c15.529,8.337 47.734,-38.824 71.872,-105.25c24.139,-66.425 31.129,-127.123 15.6,-135.46c-15.529,-8.337 -47.734,38.824 -71.873,105.249Z" style="fill:#fff;"/><path d="M719.954,1158.09c-48.148,42.992 -79.079,91.396 -69.028,108.026c10.051,16.629 57.301,-4.774 105.449,-47.765c48.148,-42.992 79.079,-91.397 69.028,-108.026c-10.05,-16.629 -57.301,4.773 -105.449,47.765Z" style="fill:#fff;"/><path d="M1254.65,1412.33c-48.148,42.991 -79.079,91.396 -69.028,108.025c10.051,16.63 57.301,-4.773 105.449,-47.765c48.148,-42.991 79.079,-91.396 69.028,-108.025c-10.05,-16.63 -57.3,4.773 -105.449,47.765Z" style="fill:#fff;"/><path d="M943.046,1575.21c-59.186,9.902 -105.358,34.536 -103.043,54.978c2.314,20.441 52.245,28.999 111.431,19.097c59.186,-9.901 105.358,-34.536 103.043,-54.978c-2.315,-20.441 -52.245,-28.998 -111.431,-19.097Z" style="fill:#fff;"/><path d="M485.415,1352.14c-59.186,9.901 -105.358,34.536 -103.044,54.978c2.315,20.441 52.246,28.998 111.432,19.097c59.186,-9.902 105.358,-34.536 103.043,-54.978c-2.315,-20.441 -52.246,-28.999 -111.431,-19.097Z" style="fill:#fff;"/><path d="M474.481,941.471c-59.185,9.901 -105.358,34.536 -103.043,54.978c2.315,20.441 52.246,28.998 111.432,19.097c59.185,-9.902 105.358,-34.536 103.043,-54.978c-2.315,-20.441 -52.246,-28.999 -111.432,-19.097Z" style="fill:#fff;"/><path d="M400.004,1673.76c-24.139,-66.426 -31.129,-127.124 -15.6,-135.461c15.529,-8.337 47.734,38.824 71.873,105.25c24.139,66.425 31.128,127.123 15.599,135.46c-15.529,8.337 -47.734,-38.824 -71.872,-105.249Z" style="fill:#fff;"/><path d="M231.122,1336.56c-39.283,54.712 -81.56,88.115 -94.35,74.548c-12.791,-13.568 8.718,-69.002 48.001,-123.713c39.283,-54.712 81.56,-88.116 94.351,-74.549c12.79,13.568 -8.718,69.002 -48.002,123.714Z" style="fill:#fff;"/><path d="M-52.929,1181.12c-48.148,-42.992 -79.079,-91.397 -69.028,-108.026c10.051,-16.629 57.301,4.773 105.449,47.765c48.149,42.992 79.079,91.396 69.028,108.026c-10.05,16.629 -57.3,-4.774 -105.449,-47.765Z" style="fill:#fff;"/><path d="M107.435,934.247c-48.149,-42.992 -79.079,-91.397 -69.029,-108.026c10.051,-16.63 57.301,4.773 105.45,47.765c48.148,42.991 79.078,91.396 69.028,108.026c-10.051,16.629 -57.301,-4.774 -105.449,-47.765Z" style="fill:#fff;"/></svg>