<?xml version="1.0" encoding="UTF-8" standalone="no"?><!DOCTYPE svg PUBLIC "-//W3C//DTD SVG 1.1//EN" "http://www.w3.org/Graphics/SVG/1.1/DTD/svg11.dtd"><svg width="100%" height="100%" viewBox="0 0 1250 1250" version="1.1" xmlns="http://www.w3.org/2000/svg" xmlns:xlink="http://www.w3.org/1999/xlink" xml:space="preserve" xmlns:serif="http://www.serif.com/" style="fill-rule:evenodd;clip-rule:evenodd;stroke-linecap:round;stroke-linejoin:round;stroke-miterlimit:1.5;"><g id="Layer1"></g><rect id="Artboard1" x="0" y="0" width="1250" height="1250" style="fill:none;"/><g id="Artboard11" serif:id="Artboard1"><path d="M221.237,157.892c12.989,113.892 40.744,318.096 185.97,300.658c122.099,-14.661 169.298,-58.994 155.305,-158.946c-13.993,-99.953 -77.45,-228.054 -173.965,-237.011c-99.453,-9.229 -170.997,5.425 -167.31,95.299Z" style="fill:#d88d19;"/><path d="M632.32,164.485c-21.945,112.583 -57.019,315.717 87.061,340.591c121.134,20.912 179.625,-7.962 196.403,-107.508c16.779,-99.545 -5.232,-240.146 -94.787,-276.317c-92.28,-37.271 -165.088,-43.728 -188.677,43.234Z" style="fill:#d88d19;"/><path d="M446.049,83.17c-21.944,112.583 -57.018,315.716 87.061,340.59c121.135,20.913 179.626,-7.962 196.404,-107.507c16.779,-99.545 -5.232,-240.146 -94.787,-276.317c-92.28,-37.271 -165.089,-43.728 -188.678,43.234Z" style="fill:#ec9c1f;"/><path d="M196.611,279.38c258.825,134.63 520.112,132.746 755.847,12.731l-87.656,910.556c-212.662,-48.825 -409.051,-58.219 -581.776,-25.618l-86.415,-897.669Z" style="fill:#ff1e00;"/><circle cx="569.954" cy="773.331" r="151.308" style="fill:#ffb2a8;stroke:#d82f19;stroke-width:1.25px;"/><path d="M271.494,1057.25c178.686,-34.86 382.991,-24.444 604.575,28.377l-11.25,116.86c-212.661,-48.898 -409.068,-58.379 -581.835,-25.877l-11.49,-119.36Z" style="fill:#ffb2a8;"/><path d="M196.611,279.38c258.825,134.63 520.112,132.746 755.847,12.731l-12.409,128.902c-228.707,111.984 -480.789,113.324 -731.014,-12.571l-12.424,-129.062Z" style="fill:#ffb2a8;"/></g></svg>